<?xml version="1.0" encoding="utf-8"?>
<!-- Generator: Adobe Illustrator 17.1.0, SVG Export Plug-In . SVG Version: 6.00 Build 0)  -->
<!DOCTYPE svg PUBLIC "-//W3C//DTD SVG 1.1//EN" "http://www.w3.org/Graphics/SVG/1.1/DTD/svg11.dtd">
<svg version="1.1" id="Layer_1" xmlns="http://www.w3.org/2000/svg" xmlns:xlink="http://www.w3.org/1999/xlink" x="0px" y="0px"
	 viewBox="0 0 313 101.7" enable-background="new 0 0 313 101.7" xml:space="preserve">
<path fill="#FFFFFF" d="M125.7,12.1c1.8,2.2,2.7,5.3,2.7,9.3c0,4-0.9,7.1-2.8,9.4c-1.9,2.3-4.4,3.4-7.6,3.4c-3.2,0-5.8-1.1-7.6-3.4
	c-1.8-2.3-2.7-5.4-2.7-9.3c0-2.6,0.4-4.8,1.3-6.8c0.8-1.9,2-3.4,3.6-4.4c1.6-1,3.4-1.5,5.5-1.5C121.3,8.8,123.9,9.9,125.7,12.1
	 M112.6,13.7c-1.3,1.8-2,4.4-2,7.8c0,3.4,0.6,6,1.9,7.8c1.3,1.8,3.1,2.7,5.5,2.7s4.2-0.9,5.5-2.7c1.3-1.8,2-4.4,2-7.9
	c0-3.4-0.6-6-1.9-7.7c-1.3-1.8-3.1-2.6-5.5-2.6C115.7,11.1,113.9,12,112.6,13.7"/>
<path fill="#FFFFFF" d="M151.2,12.1c1.5,2.2,2.2,5.3,2.2,9.3c0,3.9-0.8,7.1-2.4,9.4c-1.6,2.3-3.9,3.5-6.9,3.5c-1.5,0-2.8-0.3-4-0.9
	c-1.2-0.6-2.2-1.4-3-2.5v8.6l-2.7,1V9.3h2.3l0.2,3.6c0.9-1.3,2-2.3,3.3-3c1.3-0.7,2.7-1.1,4.3-1.1C147.5,8.8,149.7,9.9,151.2,12.1
	 M148.8,29.3c1.2-1.8,1.8-4.4,1.8-7.9c0-6.9-2.2-10.4-6.5-10.4c-1.5,0-2.7,0.4-3.8,1.1c-1.1,0.7-2.1,1.8-3.1,3.1v13
	c0.8,1.2,1.7,2.1,2.8,2.8c1.1,0.7,2.3,1,3.6,1C145.9,32,147.6,31.1,148.8,29.3"/>
<path fill="#FFFFFF" d="M178.2,22.6h-16.3c0.2,3.2,0.9,5.5,2.3,7.1c1.4,1.5,3.1,2.3,5.4,2.3c1.3,0,2.4-0.2,3.4-0.6
	c1-0.4,2.1-1,3.2-1.8l1.3,1.7c-1.2,1-2.5,1.7-3.7,2.2c-1.3,0.5-2.7,0.7-4.3,0.7c-3.2,0-5.8-1.1-7.6-3.3c-1.8-2.2-2.8-5.3-2.8-9.2
	c0-2.6,0.4-4.9,1.2-6.8c0.8-1.9,1.9-3.5,3.4-4.5c1.5-1.1,3.2-1.6,5.2-1.6c3.1,0,5.5,1.1,7.1,3.2c1.6,2.1,2.4,5,2.4,8.7
	C178.3,21.3,178.2,22,178.2,22.6 M175.6,19.8c0-2.7-0.6-4.9-1.7-6.4c-1.1-1.5-2.8-2.3-5.1-2.3c-2,0-3.6,0.8-4.9,2.3
	c-1.3,1.6-2,3.9-2.1,7.1h13.8V19.8z"/>
<path fill="#FFFFFF" d="M200.8,10.7c1.2,1.3,1.8,3.2,1.8,5.5v17.5h-2.7V16.6c0-2-0.4-3.4-1.2-4.3c-0.8-0.9-1.9-1.4-3.5-1.4
	c-1.6,0-2.9,0.4-4.1,1.3c-1.2,0.9-2.3,2.1-3.4,3.8v17.7h-2.7V9.3h2.3l0.2,4.2c2.2-3.1,5-4.7,8.2-4.7C198,8.8,199.7,9.4,200.8,10.7"
	/>
<polygon fill="#FFFFFF" points="228.2,33.8 222.8,11.8 217.3,33.8 213.7,33.8 207.5,9.3 210.3,9.3 215.6,31.7 221.3,9.3 224.4,9.3 
	230,31.7 235.2,9.3 237.8,9.3 231.9,33.8 "/>
<path fill="#FFFFFF" d="M260.7,22.6h-16.3c0.2,3.2,0.9,5.5,2.3,7.1c1.4,1.5,3.1,2.3,5.4,2.3c1.3,0,2.4-0.2,3.4-0.6
	c1-0.4,2.1-1,3.2-1.8l1.3,1.7c-1.2,1-2.5,1.7-3.7,2.2c-1.3,0.5-2.7,0.7-4.3,0.7c-3.2,0-6-1.1-7.8-3.3c-1.8-2.2-2.6-5.3-2.6-9.2
	c0-2.6,0.4-4.9,1.2-6.8c0.8-1.9,1.9-3.5,3.4-4.5c1.5-1.1,3.2-1.6,5.2-1.6c3.1,0,5.5,1.1,7.1,3.2c1.6,2.1,2.4,5,2.4,8.7
	C260.8,21.3,260.8,22,260.7,22.6 M258.2,19.8c0-2.7-0.6-4.9-1.7-6.4c-1.1-1.5-2.8-2.3-5.1-2.3c-2,0-3.6,0.8-4.9,2.3
	c-1.3,1.6-2,3.9-2.1,7.1h13.8V19.8z"/>
<path fill="#FFFFFF" d="M283.4,12.1c1.6,2.2,2.3,5.3,2.3,9.4c0,4-0.8,7.1-2.5,9.4c-1.6,2.3-3.9,3.5-6.9,3.5c-1.5,0-2.8-0.3-4-1
	c-1.2-0.7-2.2-1.5-3.1-2.6l-0.2,3.1h-2.4V-0.7l2.7-0.3v13.7c1.9-2.6,4.4-3.9,7.3-3.9C279.6,8.8,281.8,9.9,283.4,12.1 M281,29.3
	c1.2-1.8,1.8-4.4,1.8-7.9c0-6.9-2.2-10.4-6.6-10.4c-1.4,0-2.7,0.4-3.7,1.1c-1.1,0.7-2.1,1.8-3,3.1v12.9c0.8,1.2,1.7,2.2,2.8,2.9
	c1.1,0.7,2.3,1,3.6,1C278.1,32,279.8,31.1,281,29.3"/>
<path fill="#FFFFFF" d="M132.6,52.7c2.4,1,4.1,2.2,5.2,3.7c1.1,1.5,1.6,3.4,1.6,5.7c0,2.3-0.6,4.4-1.8,6.3s-3,3.3-5.3,4.3
	c-2.3,1.1-5,1.6-8.1,1.6c-1.5,0-2.9-0.1-4.2-0.4c-0.4,0.2-0.7,0.5-0.9,0.9c-0.2,0.4-0.3,0.8-0.3,1.2c0,0.7,0.3,1.2,0.8,1.6
	c0.5,0.4,1.6,0.6,3.2,0.6l6.2,0c2.8,0,5.2,0.5,7.3,1.4c2.1,0.9,3.7,2.2,4.9,3.8c1.1,1.6,1.7,3.4,1.7,5.4c0,3.8-1.6,6.7-4.9,8.9
	c-3.3,2.1-8.7,3.2-14.8,3.2c-4.4,0-7.9-0.5-10.5-1.4c-2.6-0.9-4.3-2.2-5.4-3.9c-1-1.7-1.5-3.8-1.5-6.4h9.7c0,1.1,0.2,2,0.7,2.6
	c0.4,0.6,1.2,1.1,2.4,1.4c1.1,0.3,2.8,0.5,4.9,0.5c3,0,5.7-0.3,6.9-1c1.1-0.7,1.7-1.7,1.7-3c0-1.1-0.4-2-1.3-2.6
	c-0.9-0.6-2.2-1-3.9-1l-6,0c-3.7,0-6.5-0.7-8.4-2c-1.8-1.3-2.8-3.1-2.8-5.2c0-1.3,0.4-2.6,1.2-3.9c0.8-1.3,1.8-2.3,3.2-3.1
	c-2.3-1.2-3.9-2.7-5-4.3c-1-1.7-1.5-3.7-1.5-6.1c0-4.1,1.5-7.3,4.4-9.7c2.9-2.4,6.8-3.6,11.6-3.6c3.7,0.1,8-0.7,9.5-1.1
	c2.3-0.7,4.9-1.6,7.6-3.2l2.6,7.6C140.7,52.2,137.2,52.7,132.6,52.7 M119.7,56.7c-1,1.1-1.5,2.5-1.5,4.4c0,2,0.5,3.5,1.5,4.6
	c1,1.1,2.3,1.6,4,1.6c1.8,0,3.1-0.5,4.1-1.6c0.9-1.1,1.4-2.6,1.4-4.7c0-3.9-1.8-5.9-5.5-5.9C122,55.1,120.6,55.6,119.7,56.7"/>
<path fill="#FFFFFF" d="M176.8,78c0.4,0.6,1,1.1,1.9,1.4l-2.3,7.1c-2.2-0.2-4.1-0.7-5.4-1.4c-1.4-0.8-2.5-2-3.3-3.8
	c-2.4,3.6-6,5.4-11,5.4c-3.6,0-6.5-1.1-8.6-3.2c-2.1-2.1-3.2-4.8-3.2-8.2c0-4,1.5-7,4.4-9.1c2.9-2.1,7.1-3.1,12.7-3.1h3.7v-1.6
	c0-2.1-0.5-3.6-1.4-4.4c-0.9-0.8-2.5-1.2-4.8-1.2c-1.2,0-2.6,0.2-4.3,0.5c-1.7,0.3-3.7,0.9-5.5,1.5l-2.5-7.1
	c2.3-0.9,4.9-1.6,7.3-2.1c2.4-0.5,4.6-0.7,6.7-0.7c5.2,0,9,1.1,11.4,3.2c2.4,2.1,3.6,5.4,3.6,9.7V75C176.2,76.3,176.4,77.3,176.8,78
	 M163.1,78c1-0.6,1.8-1.4,2.5-2.5V69h-2.7c-2.5,0-4.3,0.4-5.5,1.3c-1.2,0.9-1.8,2.2-1.8,4c0,1.5,0.4,2.6,1.1,3.4
	c0.8,0.8,1.8,1.2,3.1,1.2C161,78.9,162.1,78.6,163.1,78"/>
<path fill="#FFFFFF" d="M231.9,50.9c1.7,1.9,2.6,4.6,2.6,8v26.6h-10.8V60.8c0-3.2-1-4.9-3.1-4.9c-1.1,0-2.1,0.4-3,1.2
	c-0.9,0.8-1.7,2-2.5,3.6v24.9h-10.8V60.8c0-3.2-1-4.9-3.1-4.9c-1.1,0-2.1,0.4-3,1.2c-0.9,0.8-1.7,2-2.6,3.5v24.9h-10.8V49.1h9.5
	l0.8,4.2c1.4-1.8,3-3.2,4.7-4.1c1.7-0.9,3.7-1.3,5.9-1.3c2,0,3.8,0.5,5.2,1.5c1.5,1,2.6,2.4,3.3,4.2c1.5-1.9,3.1-3.4,4.8-4.3
	c1.8-1,3.8-1.4,6.1-1.4C227.9,48,230.2,48.9,231.9,50.9"/>
<path fill="#FFFFFF" d="M274.2,70.5h-22.5c0.3,3.1,1.2,5.2,2.5,6.4c1.4,1.2,3.3,1.8,5.7,1.8c1.5,0,2.9-0.3,4.2-0.8
	c1.4-0.5,2.9-1.3,4.5-2.4l4.5,6c-4.2,3.4-9,5.1-14.2,5.1c-5.9,0-10.4-1.7-13.6-5.2c-3.2-3.5-4.7-8.1-4.7-14c0-3.7,0.7-7,2-10
	c1.3-2.9,3.3-5.3,5.8-7c2.6-1.7,5.6-2.6,9.2-2.6c5.2,0,9.4,1.6,12.3,4.9c3,3.3,4.5,7.9,4.5,13.7C274.4,68.1,274.3,69.4,274.2,70.5
	 M263.8,63.5c-0.1-5.6-2.1-8.4-5.9-8.4c-1.9,0-3.3,0.7-4.3,2c-1,1.3-1.6,3.6-1.9,6.8h12.1V63.5z"/>
<path fill="#FFFFFF" d="M300.8,49.1c2.3,0.8,4.3,1.9,6,3.3l-4,6.2c-2.9-1.9-5.8-2.9-8.6-2.9c-1.6,0-2.8,0.2-3.6,0.7
	c-0.8,0.5-1.2,1.2-1.2,2c0,0.7,0.2,1.2,0.5,1.7c0.3,0.4,1,0.9,2.1,1.3c1,0.5,2.7,1,4.9,1.6c3.8,1.1,6.6,2.5,8.5,4.3
	c1.8,1.8,2.8,4.2,2.8,7.3c0,2.5-0.7,4.6-2.1,6.4c-1.4,1.8-3.4,3.2-5.8,4.1c-2.5,1-5.2,1.4-8.2,1.4c-3.1,0-5.9-0.5-8.5-1.4
	c-2.6-1-4.9-2.3-6.7-4l5.3-6c1.4,1.1,2.9,2,4.5,2.7c1.6,0.6,3.3,1,5,1c1.7,0,3-0.3,3.9-0.9c0.9-0.6,1.4-1.4,1.4-2.5
	c0-0.9-0.2-1.6-0.5-2.1c-0.4-0.5-1.1-1-2.1-1.4c-1.1-0.4-2.7-1-5-1.6c-3.6-1.1-6.3-2.5-8.1-4.4c-1.8-1.9-2.7-4.2-2.7-7
	c0-2.1,0.6-4,1.8-5.6c1.2-1.7,2.9-3,5.2-4c2.3-1,4.9-1.5,7.8-1.5C296.1,48,298.5,48.4,300.8,49.1"/>
<path fill="#EF5432" d="M90.4,52.9c2.3-4.6,1.4-10.3-2.2-13.9c-3.4-3.4-8.6-4.5-13.1-2.7c-2.7,1.1-5,3.5-6.2,5.7
	c-2.1,3.8-7.7,3.8-10,0c-2.1-4.1-6.4-6.7-11.1-6.6c-4.2,0.1-8.1,2.4-10.1,6c-1.8,3.2-2.1,7.1-0.8,10.5c1.5,3.8,5,6.7,9.1,7.4
	c5.1,0.9,10.4-1.7,12.8-6.3h0c2.2-4,8.2-3.9,10.2,0.2c1.9,3.8-1,8.5-5.3,8.4c-0.2,0-0.2,0-0.2,0l0,0c-4.1,0-8,2.2-10.2,5.6
	c-2,3.1-2.4,7-1.2,10.5c1.4,3.9,4.8,6.9,8.8,7.8c4.3,0.9,9-0.6,11.8-4.1c3-3.7,3.7-8.9,1.5-13.1l0,0c-2.1-4.3-0.6-8.9,5.4-8.7l0,0
	C84.2,59.5,88.4,56.9,90.4,52.9C90.5,52.7,90.3,53,90.4,52.9"/>
<path fill="#6799A3" d="M40.7,64.6c-2.2-1.9-5-2.9-7.9-2.9l0,0c0,0-0.1,0-0.2,0c-5-0.2-7.3-4.3-5.1-8.8c2-4,1.6-8.8-1-12.4
	c-2.3-3.2-6.2-5.1-10.1-5c-4,0.1-7.7,2.2-9.8,5.5c-2.1,3.3-2.5,7.5-1,11.1c1.9,4.5,6,7.2,11.1,7.5l0,0c4.6,0.2,7.4,4.2,5.4,8.7
	c-3.6,7.1,0.8,15.9,8.6,17.3c7.3,1.3,14.2-4.3,14.3-11.7C44.9,70.4,43.3,66.9,40.7,64.6"/>
<path fill="#6799A3" d="M75.6,21.2c0,6.7-5.4,12.1-12.1,12.1c-6.7,0-12.1-5.4-12.1-12.1c0-6.7,5.4-12.1,12.1-12.1
	C70.2,9.2,75.6,14.5,75.6,21.2"/>
<path fill="#6799A3" d="M44.8,21.2c0,6.7-5.4,12.1-12.1,12.1c-6.7,0-12.1-5.4-12.1-12.1c0-6.7,5.4-12.1,12.1-12.1
	C39.4,9.2,44.8,14.5,44.8,21.2"/>
</svg>
