<svg id="Layer_1" data-name="Layer 1" xmlns="http://www.w3.org/2000/svg" viewBox="0 0 293.79 98.09"><defs><style>.cls-1{fill:#ff5021;}.cls-2{fill:#6699a3;}.cls-3{fill:#adc0c9;}.cls-4{fill:#fff;}</style></defs><title>owg-logo-light</title><path class="cls-1" d="M86.57,51.37A12.19,12.19,0,0,0,71.15,34.56a13.79,13.79,0,0,0-6.3,5.79,5.86,5.86,0,0,1-10,0,12.17,12.17,0,1,0-.08,11.13h0a5.84,5.84,0,1,1,5,8.68H59.45a12.17,12.17,0,1,0,10.93,6.7h0c-2.11-4.34-.58-9,5.4-8.83h0a12.23,12.23,0,0,0,10.8-6.69h0Z"/><path class="cls-2" d="M36.39,63.15a12.23,12.23,0,0,0-7.94-3H28.23c-5-.16-7.42-4.36-5.15-8.88A12.19,12.19,0,0,0,11.84,33.69,12.17,12.17,0,0,0,.92,50.53a12.42,12.42,0,0,0,11.18,7.53h0c4.67,0.24,7.5,4.22,5.4,8.83h0a12.2,12.2,0,1,0,18.88-3.74h0Z"/><circle class="cls-3" cx="59.48" cy="19.37" r="12.16"/><circle class="cls-3" cx="28.43" cy="19.37" r="12.16"/><path class="cls-4" d="M119.25,20.85c0,7.34-3.65,11.9-9.64,11.9S100,28.23,100,20.94s3.69-11.86,9.64-11.86S119.25,13.42,119.25,20.85Zm-16.55.09c0,6.39,2.56,9.69,6.91,9.69s7-3.26,7-9.77-2.56-9.64-7-9.64S102.7,14.42,102.7,20.94Z"/><path class="cls-4" d="M165,21.89H149.85c0.3,6.17,3.17,8.73,7.08,8.73a9.45,9.45,0,0,0,6.12-2.26L164.23,30a11.21,11.21,0,0,1-7.43,2.78c-6,0-9.64-4.34-9.64-11.64s3.52-12,9.08-12c5.91,0,8.86,4.3,8.86,11C165.1,20.76,165.05,21.46,165,21.89Zm-2.39-2.61c0-5-2-8.12-6.3-8.12-3.52,0-6.21,2.65-6.52,8.78h12.81V19.29Z"/><path class="cls-4" d="M187.43,16V32.27h-2.52V16.38c0-3.74-1.52-5.26-4.3-5.26-3.08,0-5.17,1.91-7,4.69V32.27h-2.52V9.56h2.17l0.22,3.87c1.82-2.56,4.34-4.34,7.65-4.34C185.21,9.08,187.43,11.64,187.43,16Z"/><path class="cls-4" d="M223,32.27h-3.39l-5-20.37-5.13,20.37h-3.34L200.43,9.56H203l4.87,20.76,5.3-20.76h2.87l5.21,20.81L226.1,9.56h2.48Z"/><path class="cls-4" d="M249.43,21.89H234.27c0.3,6.17,3.17,8.73,7.08,8.73a9.45,9.45,0,0,0,6.12-2.26L248.65,30a11.21,11.21,0,0,1-7.43,2.78c-6,0-9.64-4.34-9.64-11.64s3.52-12,9.08-12c5.91,0,8.86,4.3,8.86,11C249.51,20.76,249.47,21.46,249.43,21.89ZM247,19.29c0-5-2-8.12-6.3-8.12-3.52,0-6.21,2.65-6.52,8.78H247V19.29Z"/><path class="cls-4" d="M272.23,20.81c0,7.3-3.17,11.95-8.64,11.95A8.17,8.17,0,0,1,257,29.41l-0.22,2.87H254.6V0.3l2.52-.3V12.73a8.19,8.19,0,0,1,6.82-3.65C269.15,9.08,272.23,13.25,272.23,20.81Zm-2.69,0c0-6.69-2.26-9.64-6.12-9.64-2.91,0-4.73,1.74-6.3,3.91v12a7.17,7.17,0,0,0,6,3.61C267.15,30.67,269.54,27.41,269.54,20.81Z"/><path class="cls-4" d="M133.4,48.83c-2.52,1-5.87,1.43-10.44,1.43,4.57,2,6.82,4.64,6.82,9.35,0,7-5.8,12.14-15.21,12.14a20,20,0,0,1-4.16-.41,2.32,2.32,0,0,0-1.16,2c0,1.09.48,2.18,4,2.18h5.46c8.46,0,13.85,4.44,13.85,10.51,0,7.44-6.55,12-19,12-13.71,0-17.33-4.5-17.33-11.67h9.69c0,3.14,1.36,4.5,7.91,4.5,6.35,0,7.85-1.77,7.85-4.09,0-2.12-1.57-3.55-5.19-3.55h-5.25c-7.91,0-11.12-3.27-11.12-7.16a8.63,8.63,0,0,1,4.3-7c-4.64-2.46-6.48-5.66-6.48-10.37,0-8.19,6.41-13.24,15.9-13.24,8.05,0.2,12.69-2.11,17.06-4.71Zm-24.77,9.82c0,4,2.18,6.14,5.46,6.14,3.55,0,5.46-2.12,5.46-6.28s-1.84-5.87-5.46-5.87C110.75,52.65,108.64,54.9,108.64,58.65Z"/><path class="cls-4" d="M167.51,76.87l-2.25,7c-4.23-.34-7-1.64-8.73-5.19-2.59,4-6.62,5.39-10.92,5.39-7.23,0-11.8-4.71-11.8-11.33,0-7.91,6-12.21,17-12.21h3.68V59c0-4.3-1.71-5.6-6.14-5.6a32.66,32.66,0,0,0-9.48,1.91l-2.46-7.1A40.94,40.94,0,0,1,150,45.56c10.51,0,15,4.44,15,12.83V72.44C165.06,75.23,165.81,76.26,167.51,76.87Zm-13-3.89V66.5h-2.66c-4.91,0-7.3,1.71-7.3,5.32,0,2.86,1.57,4.57,4.23,4.57A6.6,6.6,0,0,0,154.48,73Z"/><path class="cls-4" d="M221.82,56.47V82.94H211V58.31c0-3.82-1.43-4.84-3.07-4.84-2.32,0-4,1.71-5.53,4.71V82.94H191.66V58.31c0-3.82-1.43-4.84-3.07-4.84-2.25,0-4,1.71-5.53,4.71V82.94H172.29V46.72h9.42l0.75,4.23c2.8-3.55,6.07-5.39,10.51-5.39a8.66,8.66,0,0,1,8.53,5.73c2.87-3.75,6.21-5.73,10.85-5.73C217.93,45.56,221.82,49.58,221.82,56.47Z"/><path class="cls-4" d="M260,68H237.58c0.68,6.48,3.75,8.26,8.19,8.26,2.93,0,5.53-1,8.67-3.21l4.43,6a22.27,22.27,0,0,1-14.12,5c-12.08,0-18.22-7.78-18.22-19.1,0-10.85,5.94-19.44,16.92-19.44,10.37,0,16.72,6.82,16.72,18.56A36.17,36.17,0,0,1,260,68Zm-10.37-7c-0.07-4.91-1.57-8.32-5.87-8.32-3.62,0-5.66,2.25-6.21,8.8h12.08V61Z"/><path class="cls-4" d="M292.43,50l-4,6.07a16.62,16.62,0,0,0-8.94-2.8c-2.93,0-4.37,1.09-4.37,2.73,0,1.91,1,2.73,7.44,4.64,7.16,2,11.19,5,11.19,11.53,0,7.5-7.1,11.94-16.1,11.94a22.53,22.53,0,0,1-15.15-5.39l5.25-5.87a15.88,15.88,0,0,0,9.62,3.55c3.27,0,5.25-1.23,5.25-3.41,0-2.46-1.09-3.21-7.64-5-7.16-2-10.71-5.73-10.71-11.33,0-6.21,5.66-11.05,14.8-11.05A21.08,21.08,0,0,1,292.43,50Z"/><path class="cls-4" d="M133.85,9.08a8.46,8.46,0,0,0-7,3.78l-0.22-3.3h-2.17V39.27l0.39-.11c0.74-.28,1.45-0.58,2.13-0.91V29.62a8,8,0,0,0,6.47,3.13c5.65,0,8.64-4.78,8.64-11.95C142.1,13.47,139.45,9.08,133.85,9.08ZM133,30.62a7,7,0,0,1-6-3.47V15.07c1.56-2.17,3.48-3.91,6.39-3.91,4,0,6,3.17,6,9.64S137.15,30.62,133,30.62Z"/></svg>